<?xml version="1.0" encoding="UTF-8" standalone="no"?>
<!-- Created with Inkscape (http://www.inkscape.org/) -->

<svg
   width="800"
   height="800"
   viewBox="0 0 211.66666 211.66667"
   version="1.1"
   id="svg1"
   xml:space="preserve"
   inkscape:version="1.3.2 (091e20e, 2023-11-25, custom)"
   sodipodi:docname="semantic cats and dogs.svg"
   xmlns:inkscape="http://www.inkscape.org/namespaces/inkscape"
   xmlns:sodipodi="http://sodipodi.sourceforge.net/DTD/sodipodi-0.dtd"
   xmlns="http://www.w3.org/2000/svg"
   xmlns:svg="http://www.w3.org/2000/svg"><sodipodi:namedview
     id="namedview1"
     pagecolor="#2a2a2a"
     bordercolor="#eeeeee"
     borderopacity="1"
     inkscape:showpageshadow="0"
     inkscape:pageopacity="0"
     inkscape:pagecheckerboard="false"
     inkscape:deskcolor="#282a2c"
     inkscape:document-units="mm"
     inkscape:zoom="0.81869388"
     inkscape:cx="418.34929"
     inkscape:cy="281.54602"
     inkscape:window-width="1920"
     inkscape:window-height="1139"
     inkscape:window-x="-8"
     inkscape:window-y="-8"
     inkscape:window-maximized="1"
     inkscape:current-layer="layer1" /><defs
     id="defs1" /><g
     inkscape:label="Layer 1"
     inkscape:groupmode="layer"
     id="layer1"><rect
       style="color:#000000;overflow:visible;fill:#282a2c;stroke:none;stroke-width:1.058;stroke-linecap:round;stroke-linejoin:round;stroke-dasharray:1.058, 2.116;stroke-dashoffset:0;paint-order:fill markers stroke;fill-opacity:1"
       id="rect77"
       width="211.66666"
       height="211.66666"
       x="5.0862632e-06"
       y="5.0862632e-06" /><text
       xml:space="preserve"
       style="font-size:25.4px;line-height:125%;font-family:Impact;-inkscape-font-specification:Impact;text-decoration:none;text-decoration-line:none;text-decoration-color:#000000;letter-spacing:0px;word-spacing:0px;writing-mode:lr-tb;fill:#000000;stroke:#000000;stroke-width:1.05833;stroke-linecap:round;stroke-linejoin:round;stroke-opacity:1;paint-order:stroke fill markers"
       x="69.806305"
       y="172.25354"
       id="text61"><tspan
         sodipodi:role="line"
         id="tspan61"
         style="stroke-width:1.05833"
         x="69.806305"
         y="172.25354" /></text><text
       xml:space="preserve"
       style="font-size:25.4px;line-height:125%;font-family:'Segoe UI';-inkscape-font-specification:'Segoe UI';text-decoration:none;text-decoration-line:none;text-decoration-color:#000000;letter-spacing:0px;word-spacing:0px;writing-mode:lr-tb;fill:#000000;stroke:#000000;stroke-width:1.05833;stroke-linecap:round;stroke-linejoin:round;stroke-opacity:1;paint-order:stroke fill markers;font-weight:normal;font-style:normal;font-stretch:normal;font-variant:normal"
       x="21.006529"
       y="24.56148"
       id="text62"><tspan
         sodipodi:role="line"
         id="tspan62"
         style="stroke-width:1.05833;-inkscape-font-specification:'Segoe UI';font-family:'Segoe UI';font-weight:normal;font-style:normal;font-stretch:normal;font-variant:normal"
         x="21.006529"
         y="24.56148" /></text><g
       id="g8"><g
         id="g60"><path
           id="rect7"
           style="color:#000000;overflow:visible;fill:#333333;stroke-width:1.058;stroke-linecap:round;stroke-linejoin:round;stroke-dashoffset:68.1051;paint-order:fill markers stroke"
           d="M 7.9375 -20.372917 L 7.9375 -20.902083 L 20.372917 -20.902083 L 20.372917 -32.54375 L 7.9375 -32.54375 L 7.9375 -33.072917 L 20.372917 -33.072917 L 20.372917 -44.714583 L 7.9375 -44.714583 L 7.9375 -45.24375 L 20.372917 -45.24375 L 20.372917 -69.05625 L 7.9375 -69.05625 L 7.9375 -69.585417 L 20.372917 -69.585417 L 20.372917 -81.227083 L 7.9375 -81.227083 L 7.9375 -81.75625 L 20.372917 -81.75625 L 20.372917 -93.397917 L 7.9375 -93.397917 L 7.9375 -93.927083 L 20.372917 -93.927083 L 20.372917 -117.73958 L 7.9375 -117.73958 L 7.9375 -118.26875 L 20.372917 -118.26875 L 20.372917 -129.91042 L 7.9375 -129.91042 L 7.9375 -130.43958 L 20.372917 -130.43958 L 20.372917 -142.08125 L 7.9375 -142.08125 L 7.9375 -142.61042 L 20.372917 -142.61042 L 20.372917 -166.42292 L 7.9375 -166.42292 L 7.9375 -166.95208 L 20.372917 -166.95208 L 20.372917 -178.59375 L 7.9375 -178.59375 L 7.9375 -179.12292 L 20.372917 -179.12292 L 20.372917 -190.76458 L 7.9375 -190.76458 L 7.9375 -191.29375 L 20.372917 -191.29375 L 20.372917 -203.72917 L 20.902083 -203.72917 L 20.902083 -191.29375 L 32.54375 -191.29375 L 32.54375 -203.72917 L 33.072917 -203.72917 L 33.072917 -191.29375 L 44.714583 -191.29375 L 44.714583 -203.72917 L 45.24375 -203.72917 L 45.24375 -191.29375 L 69.05625 -191.29375 L 69.05625 -203.72917 L 69.585417 -203.72917 L 69.585417 -191.29375 L 81.227083 -191.29375 L 81.227083 -203.72917 L 81.75625 -203.72917 L 81.75625 -191.29375 L 93.397917 -191.29375 L 93.397917 -203.72917 L 93.927083 -203.72917 L 93.927083 -191.29375 L 117.73958 -191.29375 L 117.73958 -203.72917 L 118.26875 -203.72917 L 118.26875 -191.29375 L 129.91042 -191.29375 L 129.91042 -203.72917 L 130.43958 -203.72917 L 130.43958 -191.29375 L 142.08125 -191.29375 L 142.08125 -203.72917 L 142.61042 -203.72917 L 142.61042 -191.29375 L 166.42292 -191.29375 L 166.42292 -203.72917 L 166.95208 -203.72917 L 166.95208 -191.29375 L 178.59375 -191.29375 L 178.59375 -203.72917 L 179.12292 -203.72917 L 179.12292 -191.29375 L 190.76458 -191.29375 L 190.76458 -203.72917 L 191.29375 -203.72917 L 191.29375 -191.29375 L 191.29375 -190.76458 L 191.29375 -20.372917 L 7.9375 -20.372917 z M 20.902083 -20.902083 L 32.54375 -20.902083 L 32.54375 -32.54375 L 20.902083 -32.54375 L 20.902083 -20.902083 z M 33.072917 -20.902083 L 44.714583 -20.902083 L 44.714583 -32.54375 L 33.072917 -32.54375 L 33.072917 -20.902083 z M 45.24375 -20.902083 L 69.05625 -20.902083 L 69.05625 -32.54375 L 45.24375 -32.54375 L 45.24375 -20.902083 z M 69.585417 -20.902083 L 81.227083 -20.902083 L 81.227083 -32.54375 L 69.585417 -32.54375 L 69.585417 -20.902083 z M 81.75625 -20.902083 L 93.397917 -20.902083 L 93.397917 -32.54375 L 81.75625 -32.54375 L 81.75625 -20.902083 z M 93.927083 -20.902083 L 117.73958 -20.902083 L 117.73958 -32.54375 L 93.927083 -32.54375 L 93.927083 -20.902083 z M 118.26875 -20.902083 L 129.91042 -20.902083 L 129.91042 -32.54375 L 118.26875 -32.54375 L 118.26875 -20.902083 z M 130.43958 -20.902083 L 142.08125 -20.902083 L 142.08125 -32.54375 L 130.43958 -32.54375 L 130.43958 -20.902083 z M 142.61042 -20.902083 L 166.42292 -20.902083 L 166.42292 -32.54375 L 142.61042 -32.54375 L 142.61042 -20.902083 z M 166.95208 -20.902083 L 178.59375 -20.902083 L 178.59375 -32.54375 L 166.95208 -32.54375 L 166.95208 -20.902083 z M 179.12292 -20.902083 L 190.76458 -20.902083 L 190.76458 -32.54375 L 179.12292 -32.54375 L 179.12292 -20.902083 z M 20.902083 -33.072917 L 32.54375 -33.072917 L 32.54375 -44.714583 L 20.902083 -44.714583 L 20.902083 -33.072917 z M 33.072917 -33.072917 L 44.714583 -33.072917 L 44.714583 -44.714583 L 33.072917 -44.714583 L 33.072917 -33.072917 z M 45.24375 -33.072917 L 69.05625 -33.072917 L 69.05625 -44.714583 L 45.24375 -44.714583 L 45.24375 -33.072917 z M 69.585417 -33.072917 L 81.227083 -33.072917 L 81.227083 -44.714583 L 69.585417 -44.714583 L 69.585417 -33.072917 z M 81.75625 -33.072917 L 93.397917 -33.072917 L 93.397917 -44.714583 L 81.75625 -44.714583 L 81.75625 -33.072917 z M 93.927083 -33.072917 L 117.73958 -33.072917 L 117.73958 -44.714583 L 93.927083 -44.714583 L 93.927083 -33.072917 z M 118.26875 -33.072917 L 129.91042 -33.072917 L 129.91042 -44.714583 L 118.26875 -44.714583 L 118.26875 -33.072917 z M 130.43958 -33.072917 L 142.08125 -33.072917 L 142.08125 -44.714583 L 130.43958 -44.714583 L 130.43958 -33.072917 z M 142.61042 -33.072917 L 166.42292 -33.072917 L 166.42292 -44.714583 L 142.61042 -44.714583 L 142.61042 -33.072917 z M 166.95208 -33.072917 L 178.59375 -33.072917 L 178.59375 -44.714583 L 166.95208 -44.714583 L 166.95208 -33.072917 z M 179.12292 -33.072917 L 190.76458 -33.072917 L 190.76458 -44.714583 L 179.12292 -44.714583 L 179.12292 -33.072917 z M 20.902083 -45.24375 L 32.54375 -45.24375 L 32.54375 -69.05625 L 20.902083 -69.05625 L 20.902083 -45.24375 z M 33.072917 -45.24375 L 44.714583 -45.24375 L 44.714583 -69.05625 L 33.072917 -69.05625 L 33.072917 -45.24375 z M 45.24375 -45.24375 L 69.05625 -45.24375 L 69.05625 -69.05625 L 45.24375 -69.05625 L 45.24375 -45.24375 z M 69.585417 -45.24375 L 81.227083 -45.24375 L 81.227083 -69.05625 L 69.585417 -69.05625 L 69.585417 -45.24375 z M 81.75625 -45.24375 L 93.397917 -45.24375 L 93.397917 -69.05625 L 81.75625 -69.05625 L 81.75625 -45.24375 z M 93.927083 -45.24375 L 117.73958 -45.24375 L 117.73958 -69.05625 L 93.927083 -69.05625 L 93.927083 -45.24375 z M 118.26875 -45.24375 L 129.91042 -45.24375 L 129.91042 -69.05625 L 118.26875 -69.05625 L 118.26875 -45.24375 z M 130.43958 -45.24375 L 142.08125 -45.24375 L 142.08125 -69.05625 L 130.43958 -69.05625 L 130.43958 -45.24375 z M 142.61042 -45.24375 L 166.42292 -45.24375 L 166.42292 -69.05625 L 142.61042 -69.05625 L 142.61042 -45.24375 z M 166.95208 -45.24375 L 178.59375 -45.24375 L 178.59375 -69.05625 L 166.95208 -69.05625 L 166.95208 -45.24375 z M 179.12292 -45.24375 L 190.76458 -45.24375 L 190.76458 -69.05625 L 179.12292 -69.05625 L 179.12292 -45.24375 z M 20.902083 -69.585417 L 32.54375 -69.585417 L 32.54375 -81.227083 L 20.902083 -81.227083 L 20.902083 -69.585417 z M 33.072917 -69.585417 L 44.714583 -69.585417 L 44.714583 -81.227083 L 33.072917 -81.227083 L 33.072917 -69.585417 z M 45.24375 -69.585417 L 69.05625 -69.585417 L 69.05625 -81.227083 L 45.24375 -81.227083 L 45.24375 -69.585417 z M 69.585417 -69.585417 L 81.227083 -69.585417 L 81.227083 -81.227083 L 69.585417 -81.227083 L 69.585417 -69.585417 z M 81.75625 -69.585417 L 93.397917 -69.585417 L 93.397917 -81.227083 L 81.75625 -81.227083 L 81.75625 -69.585417 z M 93.927083 -69.585417 L 117.73958 -69.585417 L 117.73958 -81.227083 L 93.927083 -81.227083 L 93.927083 -69.585417 z M 118.26875 -69.585417 L 129.91042 -69.585417 L 129.91042 -81.227083 L 118.26875 -81.227083 L 118.26875 -69.585417 z M 130.43958 -69.585417 L 142.08125 -69.585417 L 142.08125 -81.227083 L 130.43958 -81.227083 L 130.43958 -69.585417 z M 142.61042 -69.585417 L 166.42292 -69.585417 L 166.42292 -81.227083 L 142.61042 -81.227083 L 142.61042 -69.585417 z M 166.95208 -69.585417 L 178.59375 -69.585417 L 178.59375 -81.227083 L 166.95208 -81.227083 L 166.95208 -69.585417 z M 179.12292 -69.585417 L 190.76458 -69.585417 L 190.76458 -81.227083 L 179.12292 -81.227083 L 179.12292 -69.585417 z M 20.902083 -81.75625 L 32.54375 -81.75625 L 32.54375 -93.397917 L 20.902083 -93.397917 L 20.902083 -81.75625 z M 33.072917 -81.75625 L 44.714583 -81.75625 L 44.714583 -93.397917 L 33.072917 -93.397917 L 33.072917 -81.75625 z M 45.24375 -81.75625 L 69.05625 -81.75625 L 69.05625 -93.397917 L 45.24375 -93.397917 L 45.24375 -81.75625 z M 69.585417 -81.75625 L 81.227083 -81.75625 L 81.227083 -93.397917 L 69.585417 -93.397917 L 69.585417 -81.75625 z M 81.75625 -81.75625 L 93.397917 -81.75625 L 93.397917 -93.397917 L 81.75625 -93.397917 L 81.75625 -81.75625 z M 93.927083 -81.75625 L 117.73958 -81.75625 L 117.73958 -93.397917 L 93.927083 -93.397917 L 93.927083 -81.75625 z M 118.26875 -81.75625 L 129.91042 -81.75625 L 129.91042 -93.397917 L 118.26875 -93.397917 L 118.26875 -81.75625 z M 130.43958 -81.75625 L 142.08125 -81.75625 L 142.08125 -93.397917 L 130.43958 -93.397917 L 130.43958 -81.75625 z M 142.61042 -81.75625 L 166.42292 -81.75625 L 166.42292 -93.397917 L 142.61042 -93.397917 L 142.61042 -81.75625 z M 166.95208 -81.75625 L 178.59375 -81.75625 L 178.59375 -93.397917 L 166.95208 -93.397917 L 166.95208 -81.75625 z M 179.12292 -81.75625 L 190.76458 -81.75625 L 190.76458 -93.397917 L 179.12292 -93.397917 L 179.12292 -81.75625 z M 20.902083 -93.927083 L 32.54375 -93.927083 L 32.54375 -117.73958 L 20.902083 -117.73958 L 20.902083 -93.927083 z M 33.072917 -93.927083 L 44.714583 -93.927083 L 44.714583 -117.73958 L 33.072917 -117.73958 L 33.072917 -93.927083 z M 45.24375 -93.927083 L 69.05625 -93.927083 L 69.05625 -117.73958 L 45.24375 -117.73958 L 45.24375 -93.927083 z M 69.585417 -93.927083 L 81.227083 -93.927083 L 81.227083 -117.73958 L 69.585417 -117.73958 L 69.585417 -93.927083 z M 81.75625 -93.927083 L 93.397917 -93.927083 L 93.397917 -117.73958 L 81.75625 -117.73958 L 81.75625 -93.927083 z M 93.927083 -93.927083 L 117.73958 -93.927083 L 117.73958 -117.73958 L 93.927083 -117.73958 L 93.927083 -93.927083 z M 118.26875 -93.927083 L 129.91042 -93.927083 L 129.91042 -117.73958 L 118.26875 -117.73958 L 118.26875 -93.927083 z M 130.43958 -93.927083 L 142.08125 -93.927083 L 142.08125 -117.73958 L 130.43958 -117.73958 L 130.43958 -93.927083 z M 142.61042 -93.927083 L 166.42292 -93.927083 L 166.42292 -117.73958 L 142.61042 -117.73958 L 142.61042 -93.927083 z M 166.95208 -93.927083 L 178.59375 -93.927083 L 178.59375 -117.73958 L 166.95208 -117.73958 L 166.95208 -93.927083 z M 179.12292 -93.927083 L 190.76458 -93.927083 L 190.76458 -117.73958 L 179.12292 -117.73958 L 179.12292 -93.927083 z M 20.902083 -118.26875 L 32.54375 -118.26875 L 32.54375 -129.91042 L 20.902083 -129.91042 L 20.902083 -118.26875 z M 33.072917 -118.26875 L 44.714583 -118.26875 L 44.714583 -129.91042 L 33.072917 -129.91042 L 33.072917 -118.26875 z M 45.24375 -118.26875 L 69.05625 -118.26875 L 69.05625 -129.91042 L 45.24375 -129.91042 L 45.24375 -118.26875 z M 69.585417 -118.26875 L 81.227083 -118.26875 L 81.227083 -129.91042 L 69.585417 -129.91042 L 69.585417 -118.26875 z M 81.75625 -118.26875 L 93.397917 -118.26875 L 93.397917 -129.91042 L 81.75625 -129.91042 L 81.75625 -118.26875 z M 93.927083 -118.26875 L 117.73958 -118.26875 L 117.73958 -129.91042 L 93.927083 -129.91042 L 93.927083 -118.26875 z M 118.26875 -118.26875 L 129.91042 -118.26875 L 129.91042 -129.91042 L 118.26875 -129.91042 L 118.26875 -118.26875 z M 130.43958 -118.26875 L 142.08125 -118.26875 L 142.08125 -129.91042 L 130.43958 -129.91042 L 130.43958 -118.26875 z M 142.61042 -118.26875 L 166.42292 -118.26875 L 166.42292 -129.91042 L 142.61042 -129.91042 L 142.61042 -118.26875 z M 166.95208 -118.26875 L 178.59375 -118.26875 L 178.59375 -129.91042 L 166.95208 -129.91042 L 166.95208 -118.26875 z M 179.12292 -118.26875 L 190.76458 -118.26875 L 190.76458 -129.91042 L 179.12292 -129.91042 L 179.12292 -118.26875 z M 20.902083 -130.43958 L 32.54375 -130.43958 L 32.54375 -142.08125 L 20.902083 -142.08125 L 20.902083 -130.43958 z M 33.072917 -130.43958 L 44.714583 -130.43958 L 44.714583 -142.08125 L 33.072917 -142.08125 L 33.072917 -130.43958 z M 45.24375 -130.43958 L 69.05625 -130.43958 L 69.05625 -142.08125 L 45.24375 -142.08125 L 45.24375 -130.43958 z M 69.585417 -130.43958 L 81.227083 -130.43958 L 81.227083 -142.08125 L 69.585417 -142.08125 L 69.585417 -130.43958 z M 81.75625 -130.43958 L 93.397917 -130.43958 L 93.397917 -142.08125 L 81.75625 -142.08125 L 81.75625 -130.43958 z M 93.927083 -130.43958 L 117.73958 -130.43958 L 117.73958 -142.08125 L 93.927083 -142.08125 L 93.927083 -130.43958 z M 118.26875 -130.43958 L 129.91042 -130.43958 L 129.91042 -142.08125 L 118.26875 -142.08125 L 118.26875 -130.43958 z M 130.43958 -130.43958 L 142.08125 -130.43958 L 142.08125 -142.08125 L 130.43958 -142.08125 L 130.43958 -130.43958 z M 142.61042 -130.43958 L 166.42292 -130.43958 L 166.42292 -142.08125 L 142.61042 -142.08125 L 142.61042 -130.43958 z M 166.95208 -130.43958 L 178.59375 -130.43958 L 178.59375 -142.08125 L 166.95208 -142.08125 L 166.95208 -130.43958 z M 179.12292 -130.43958 L 190.76458 -130.43958 L 190.76458 -142.08125 L 179.12292 -142.08125 L 179.12292 -130.43958 z M 20.902083 -142.61042 L 32.54375 -142.61042 L 32.54375 -166.42292 L 20.902083 -166.42292 L 20.902083 -142.61042 z M 33.072917 -142.61042 L 44.714583 -142.61042 L 44.714583 -166.42292 L 33.072917 -166.42292 L 33.072917 -142.61042 z M 45.24375 -142.61042 L 69.05625 -142.61042 L 69.05625 -166.42292 L 45.24375 -166.42292 L 45.24375 -142.61042 z M 69.585417 -142.61042 L 81.227083 -142.61042 L 81.227083 -166.42292 L 69.585417 -166.42292 L 69.585417 -142.61042 z M 81.75625 -142.61042 L 93.397917 -142.61042 L 93.397917 -166.42292 L 81.75625 -166.42292 L 81.75625 -142.61042 z M 93.927083 -142.61042 L 117.73958 -142.61042 L 117.73958 -166.42292 L 93.927083 -166.42292 L 93.927083 -142.61042 z M 118.26875 -142.61042 L 129.91042 -142.61042 L 129.91042 -166.42292 L 118.26875 -166.42292 L 118.26875 -142.61042 z M 130.43958 -142.61042 L 142.08125 -142.61042 L 142.08125 -166.42292 L 130.43958 -166.42292 L 130.43958 -142.61042 z M 142.61042 -142.61042 L 166.42292 -142.61042 L 166.42292 -166.42292 L 142.61042 -166.42292 L 142.61042 -142.61042 z M 166.95208 -142.61042 L 178.59375 -142.61042 L 178.59375 -166.42292 L 166.95208 -166.42292 L 166.95208 -142.61042 z M 179.12292 -142.61042 L 190.76458 -142.61042 L 190.76458 -166.42292 L 179.12292 -166.42292 L 179.12292 -142.61042 z M 20.902083 -166.95208 L 32.54375 -166.95208 L 32.54375 -178.59375 L 20.902083 -178.59375 L 20.902083 -166.95208 z M 33.072917 -166.95208 L 44.714583 -166.95208 L 44.714583 -178.59375 L 33.072917 -178.59375 L 33.072917 -166.95208 z M 45.24375 -166.95208 L 69.05625 -166.95208 L 69.05625 -178.59375 L 45.24375 -178.59375 L 45.24375 -166.95208 z M 69.585417 -166.95208 L 81.227083 -166.95208 L 81.227083 -178.59375 L 69.585417 -178.59375 L 69.585417 -166.95208 z M 81.75625 -166.95208 L 93.397917 -166.95208 L 93.397917 -178.59375 L 81.75625 -178.59375 L 81.75625 -166.95208 z M 93.927083 -166.95208 L 117.73958 -166.95208 L 117.73958 -178.59375 L 93.927083 -178.59375 L 93.927083 -166.95208 z M 118.26875 -166.95208 L 129.91042 -166.95208 L 129.91042 -178.59375 L 118.26875 -178.59375 L 118.26875 -166.95208 z M 130.43958 -166.95208 L 142.08125 -166.95208 L 142.08125 -178.59375 L 130.43958 -178.59375 L 130.43958 -166.95208 z M 142.61042 -166.95208 L 166.42292 -166.95208 L 166.42292 -178.59375 L 142.61042 -178.59375 L 142.61042 -166.95208 z M 166.95208 -166.95208 L 178.59375 -166.95208 L 178.59375 -178.59375 L 166.95208 -178.59375 L 166.95208 -166.95208 z M 179.12292 -166.95208 L 190.76458 -166.95208 L 190.76458 -178.59375 L 179.12292 -178.59375 L 179.12292 -166.95208 z M 20.902083 -179.12292 L 32.54375 -179.12292 L 32.54375 -190.76458 L 20.902083 -190.76458 L 20.902083 -179.12292 z M 33.072917 -179.12292 L 44.714583 -179.12292 L 44.714583 -190.76458 L 33.072917 -190.76458 L 33.072917 -179.12292 z M 45.24375 -179.12292 L 69.05625 -179.12292 L 69.05625 -190.76458 L 45.24375 -190.76458 L 45.24375 -179.12292 z M 69.585417 -179.12292 L 81.227083 -179.12292 L 81.227083 -190.76458 L 69.585417 -190.76458 L 69.585417 -179.12292 z M 81.75625 -179.12292 L 93.397917 -179.12292 L 93.397917 -190.76458 L 81.75625 -190.76458 L 81.75625 -179.12292 z M 93.927083 -179.12292 L 117.73958 -179.12292 L 117.73958 -190.76458 L 93.927083 -190.76458 L 93.927083 -179.12292 z M 118.26875 -179.12292 L 129.91042 -179.12292 L 129.91042 -190.76458 L 118.26875 -190.76458 L 118.26875 -179.12292 z M 130.43958 -179.12292 L 142.08125 -179.12292 L 142.08125 -190.76458 L 130.43958 -190.76458 L 130.43958 -179.12292 z M 142.61042 -179.12292 L 166.42292 -179.12292 L 166.42292 -190.76458 L 142.61042 -190.76458 L 142.61042 -179.12292 z M 166.95208 -179.12292 L 178.59375 -179.12292 L 178.59375 -190.76458 L 166.95208 -190.76458 L 166.95208 -179.12292 z M 179.12292 -179.12292 L 190.76458 -179.12292 L 190.76458 -190.76458 L 179.12292 -190.76458 L 179.12292 -179.12292 z "
           transform="scale(1,-1)" /><rect
           style="color:#000000;overflow:visible;fill:#333333;stroke-width:1.058;stroke-linecap:round;stroke-linejoin:round;stroke-dashoffset:68.1051;paint-order:fill markers stroke"
           id="rect10"
           width="1.0583342"
           height="183.35625"
           x="56.620834"
           y="-203.72914"
           transform="scale(1,-1)" /><rect
           style="color:#000000;overflow:visible;fill:#333333;stroke-width:1.058;stroke-linecap:round;stroke-linejoin:round;stroke-dashoffset:68.1051;paint-order:fill markers stroke"
           id="rect14"
           width="1.0583342"
           height="183.35625"
           x="105.30417"
           y="-203.72914"
           transform="scale(1,-1)" /><rect
           style="color:#000000;overflow:visible;fill:#333333;stroke-width:1.058;stroke-linecap:round;stroke-linejoin:round;stroke-dashoffset:68.1051;paint-order:fill markers stroke"
           id="rect18"
           width="1.0583342"
           height="183.35625"
           x="153.9875"
           y="-203.72914"
           transform="scale(1,-1)" /><rect
           style="color:#000000;overflow:visible;fill:#333333;stroke-width:1.058;stroke-linecap:round;stroke-linejoin:round;stroke-dashoffset:68.1051;paint-order:fill markers stroke"
           id="rect28"
           width="1.0583342"
           height="183.35625"
           x="56.620804"
           y="-191.29378"
           transform="rotate(90)" /><rect
           style="color:#000000;overflow:visible;fill:#333333;stroke-width:1.058;stroke-linecap:round;stroke-linejoin:round;stroke-dashoffset:68.1051;paint-order:fill markers stroke"
           id="rect32"
           width="1.0583342"
           height="183.35625"
           x="105.30414"
           y="-191.29378"
           transform="rotate(90)" /><rect
           style="color:#000000;overflow:visible;fill:#333333;stroke-width:1.058;stroke-linecap:round;stroke-linejoin:round;stroke-dashoffset:68.1051;paint-order:fill markers stroke"
           id="rect36"
           width="1.0583342"
           height="183.35625"
           x="153.98747"
           y="-191.29378"
           transform="rotate(90)" /><path
           id="rect40"
           style="color:#000000;overflow:visible;fill:#808080;stroke-width:1.058;stroke-linecap:round;stroke-linejoin:round;stroke-dashoffset:68.1051;paint-order:fill markers stroke"
           d="M 7.9375 -7.9375 L 202.14167 -7.9375 L 203.72917 -7.9375 L 203.72917 -9.525 L 203.72917 -203.72917 L 202.14167 -203.72917 L 202.14167 -9.525 L 7.9375 -9.525 L 7.9375 -7.9375 z "
           transform="rotate(90)" /></g><path
         style="color:#000000;overflow:visible;fill:none;stroke:#2a7fff;stroke-width:1.058;stroke-linecap:round;stroke-linejoin:round;stroke-dasharray:1.058, 2.116;stroke-dashoffset:0;paint-order:fill markers stroke"
         d="m 50.09249,112.30413 30.70185,18.5827"
         id="path72" /><path
         style="color:#000000;overflow:visible;fill:none;stroke:#ff6600;stroke-width:1.058;stroke-linecap:round;stroke-linejoin:round;stroke-dashoffset:0;paint-order:fill markers stroke;stroke-dasharray:1.05799997, 2.11599994"
         d="M 9.0489661,201.98585 177.74755,36.195865"
         id="path60" /><g
         id="g1"
         transform="matrix(0.09871784,0,0,0.09871784,74.849291,122.8121)"
         style="stroke-width:2.6802"><path
           style="fill:#ffc022;stroke-width:2.6802"
           d="M 114.67,70.19 C 112.71,44.22 94.44,26.3 64,26.3 c -30.44,0 -48.75,19.03 -50.55,45.01 -1.05,15.14 4.58,28.63 15.91,36.32 7.46,5.07 17.88,7.88 34.77,7.88 17.18,0 27.03,-3.71 34.49,-8.73 12.43,-8.35 17.18,-21.67 16.05,-36.59 z"
           id="path1" /><g
           id="g4"
           style="stroke-width:2.6802">
	<g
   id="g3"
   style="stroke-width:2.6802">
		<g
   id="g2"
   style="stroke-width:2.6802">
			<path
   style="fill:#ffc022;stroke-width:2.6802"
   d="M 53.72,42.6 C 46.3,23.4 30.1,10.34 23.87,8.39 21.52,7.65 18.57,7.58 17.24,9.74 13.88,15.19 9.58,32.69 19.09,57.52 Z"
   id="path2" />
		</g>
		<path
   style="fill:#ffd1d1;stroke-width:2.6802"
   d="m 36.12,34.21 c 1.54,-1.29 2.29,-2.55 0.6,-5.16 C 34.1,25 29.39,20.27 27.56,18.82 c -3,-2.38 -5.32,-3.18 -6.21,0.65 -1.65,7.08 -1.52,16.69 0.25,21.99 0.62,1.87 2.54,2.86 4.02,1.57 z"
   id="path3" />
	</g>
</g><path
           style="fill:#ff9b31;stroke-width:2.6802"
           d="m 54.12,45.02 c 1.13,0.96 3.42,0.82 4.75,-0.72 1.61,-1.87 3.29,-8.17 2.24,-17.91 -4.67,0.17 -9.09,0.84 -13.21,1.97 3.33,5.46 4.13,14.88 6.22,16.66 z"
           id="path4" /><path
           style="fill:#ff9b31;stroke-width:2.6802"
           d="m 73.88,45.02 c -1.13,0.96 -3.42,0.82 -4.75,-0.72 -1.61,-1.87 -3.29,-8.17 -2.24,-17.91 4.67,0.17 9.09,0.84 13.21,1.97 -3.33,5.46 -4.13,14.88 -6.22,16.66 z"
           id="path5" /><g
           id="g6"
           style="stroke-width:2.6802">
	<path
   style="fill:#ffc022;stroke-width:2.6802"
   d="M 79.9,29.22 C 87.98,16.81 99.28,8.47 103.97,6.98 c 2.32,-0.74 5.02,-0.62 6.34,1.55 3.32,5.45 6.13,22.24 -0.42,45.75 L 85.96,42.74 Z"
   id="path6" />
</g><g
           id="g7"
           style="stroke-width:2.6802">
	<path
   style="fill:#ffd1d1;stroke-width:2.6802"
   d="m 97.55,38.23 c 2.43,2.43 4.41,4.06 5.84,5.61 0.95,1.03 2.69,0.56 2.97,-0.82 2.45,-11.8 1.67,-21.86 0,-24.5 -0.8,-1.26 -2.29,-1.59 -3.65,-1.13 -2.44,0.81 -8.66,5.45 -13.05,12.22 -0.51,0.79 -0.32,1.85 0.46,2.38 1.58,1.07 4.34,3.14 7.43,6.24 z"
   id="path7" />
</g><path
           d="m 55.67,77.75 c -0.05,-3.08 4.37,-4.55 8.54,-4.62 4.18,-0.07 8.68,1.29 8.73,4.37 0.05,3.08 -5.22,7.13 -8.54,7.13 -3.31,0 -8.67,-3.81 -8.73,-6.88 z"
           id="path8"
           style="stroke-width:2.6802" /><g
           id="g15"
           style="stroke-width:2.6802">
	<g
   id="g11"
   style="stroke-width:2.6802">
		<path
   style="fill:none;stroke:#9e9e9e;stroke-width:8.04059;stroke-linecap:round;stroke-miterlimit:10"
   d="m 6.7,71.03 c 0.34,0.41 4.41,0.35 14.36,5.07"
   id="path9" />
		<path
   style="fill:none;stroke:#9e9e9e;stroke-width:8.04059;stroke-linecap:round;stroke-miterlimit:10"
   d="m 2.9,82.86 c 0,0 6.42,-2.24 17.46,-0.28"
   id="path10" />
		<path
   style="fill:none;stroke:#9e9e9e;stroke-width:8.04059;stroke-linecap:round;stroke-miterlimit:10"
   d="m 8.81,92.29 c 0,0 2.74,-1.38 12.67,-2.25"
   id="path11" />
	</g>
	<g
   id="g14"
   style="stroke-width:2.6802">
		<path
   style="fill:none;stroke:#9e9e9e;stroke-width:8.04059;stroke-linecap:round;stroke-miterlimit:10"
   d="m 120.87,67.51 c 0,0 -3.41,0.33 -13.94,6.34"
   id="path12" />
		<path
   style="fill:none;stroke:#9e9e9e;stroke-width:8.04059;stroke-linecap:round;stroke-miterlimit:10"
   d="m 122.42,78.49 c 0,0 -5.09,-0.36 -16.05,1.97"
   id="path13" />
		<path
   style="fill:none;stroke:#9e9e9e;stroke-width:8.04059;stroke-linecap:round;stroke-miterlimit:10"
   d="m 120.45,89.05 c 0,0 -4.83,-1.71 -14.78,-2.25"
   id="path14" />
	</g>
</g><path
           style="fill:#000200;stroke-width:2.6802"
           d="m 96.09,66.37 c -0.34,5.51 -3.76,8.54 -7.65,8.54 -3.89,0 -7.04,-3.88 -7.04,-8.66 0,-4.78 3.28,-8.71 7.65,-8.47 5.07,0.29 7.32,4.09 7.04,8.59 z"
           id="path15" /><path
           style="fill:#000200;stroke-width:2.6802"
           d="m 46,65.81 c 0.78,5.61 -1.58,9.03 -5.49,9.82 -3.91,0.79 -7.26,-1.84 -8.23,-6.64 -0.98,-4.81 0.9,-9.32 5.34,-9.97 5.15,-0.75 7.74,2.2 8.38,6.79 z"
           id="path16" /><path
           d="m 44.99,85.16 c -2.57,1.67 0.47,5.54 2.25,6.85 1.78,1.31 4.98,2.92 9.67,2.44 5.54,-0.56 7.13,-4.69 7.13,-4.69 0,0 1.97,4.6 8.82,4.79 6.95,0.19 9.1,-3.57 10.04,-4.69 0.94,-1.13 1.88,-4.04 0.28,-5.16 -1.6,-1.13 -2.72,0.28 -4.41,2.63 -1.69,2.35 -5.16,3.66 -8.54,2.06 -3.38,-1.6 -3.57,-7.04 -3.57,-7.04 l -4.79,0.28 c 0,0 -0.75,4.69 -2.91,6.19 -2.16,1.5 -7.32,1.88 -9.48,-1.41 -0.95,-1.46 -2.33,-3.66 -4.49,-2.25 z"
           id="path17"
           style="stroke-width:2.6802" /></g><g
         id="g5"
         transform="matrix(0.09871784,0,0,0.09871784,43.969002,104.45126)"
         style="stroke-width:2.6802"><path
           style="fill:#ffeac8;stroke-width:2.6802"
           d="M 63.76,19.97 C 34.67,19.22 25.25,41.74 24.53,50.19 c -0.56,6.57 -3.38,30.6 10.32,46.74 7.07,8.33 18.4,12.48 30.41,12.2 12.11,-0.28 23.05,-2.69 30.41,-12.39 12.39,-16.33 11.07,-40.73 9.39,-48.62 -1.58,-7.34 -7.71,-27.29 -41.3,-28.15 z"
           id="path1-6" /><path
           style="fill:#d27856;stroke-width:2.6802"
           d="M 96.82,64.43 C 97.85,72.24 94.46,79.69 85.53,80.22 77.36,80.71 72.32,75.5 71.92,67.83 71.51,59.97 75.81,52.66 82.64,51.91 89.85,51.12 95.8,56.62 96.82,64.43 Z"
           id="path2-5" /><path
           style="fill:#d27856;stroke-width:2.6802"
           d="m 18.9,26.72 c 0,0 -9.83,3.85 -12.2,9.57 -3.19,7.7 -1.72,22.98 0,28.91 1.69,5.82 6.19,11.83 13.14,11.64 6.95,-0.19 13.05,-7.23 15.2,-16.42 2.16,-9.2 2.63,-24.96 3.28,-27.78 0.65,-2.82 1.78,-5.07 1.78,-5.07 0,0 -8.63,-8.36 -21.2,-0.85 z"
           id="path3-6" /><path
           style="fill:#d27856;stroke-width:2.6802"
           d="m 101.21,25.5 c 0,0 13.33,0.47 16.52,1.88 3.19,1.41 6.1,7.79 5.82,16.33 -0.28,8.54 -0.84,22.35 -5.16,27.12 -3.57,3.94 -10.79,4.22 -14.83,-0.66 C 99.52,65.29 96.99,57.03 96.05,51.68 95.11,46.33 93.52,39.39 92.48,36.29 91.45,33.19 88.91,27 87.6,25.59 c -1.32,-1.4 1.31,-2.72 13.61,-0.09 z"
           id="path4-2" /><path
           style="fill:#865b51;stroke-width:2.6802"
           d="M 29.97,22.31 C 22.74,21.85 10.82,27.57 8.38,33.48 5.94,39.39 7.37,58.57 9.42,64.17 c 2.16,5.91 6.66,13.33 14.45,6.95 7.79,-6.38 9.85,-22.43 10.61,-27.59 0.75,-5.16 1.78,-11.45 2.91,-12.76 1.13,-1.31 2.72,-3.19 2.72,-3.19 0,0 -1.22,-4.71 -10.14,-5.27 z"
           id="path5-3" /><path
           style="fill:#865b51;stroke-width:2.6802"
           d="m 102.8,21.09 c 6.79,0.47 14.17,3 16.89,8.92 2.72,5.91 1.69,19.9 0.66,26.56 -1.03,6.66 -3.47,13.61 -9.57,12.86 -6.1,-0.75 -9.2,-9.01 -11.07,-16.8 -1.88,-7.79 -3.85,-15.58 -6.29,-21.21 -1.47,-3.4 -6.57,-5.91 -6.57,-5.91 0,0 2.25,-5.36 15.95,-4.42 z"
           id="path6-2" /><path
           style="fill:#2f2f2f;stroke-width:2.6802"
           d="m 50.5,67.69 c -0.4,3.42 -2.16,6.18 -5.98,5.78 -2.71,-0.29 -4.53,-3.52 -4.13,-6.95 0.4,-3.42 1.59,-5.88 4.79,-5.82 4.97,0.09 5.72,3.56 5.32,6.99 z"
           id="path7-5" /><path
           style="fill:#2f2f2f;stroke-width:2.6802"
           d="m 89.74,66.73 c 0.16,3.44 -1.2,6.38 -5.17,6.67 -3.45,0.25 -5.22,-2.74 -5.37,-6.18 -0.16,-3.44 1.55,-6.2 4.84,-6.61 4.27,-0.55 5.54,2.68 5.7,6.12 z"
           id="path8-6" /><path
           style="fill:#2f2f2f;stroke-width:2.6802"
           d="m 75.12,84.07 c 0.16,3.44 -2.16,6.66 -9.39,6.57 -7.04,-0.09 -9.6,-2.94 -9.76,-6.38 -0.16,-3.44 3.84,-6.53 9.57,-6.66 7.89,-0.2 9.42,3.02 9.58,6.47 z"
           id="path9-4" /><path
           style="fill:#e94b8c;stroke-width:2.6802"
           d="m 59.16,97.96 c 0,0 0.85,8.17 1.69,10.61 1.78,5.16 9.28,4.3 10.61,-0.56 1.13,-4.13 0.38,-11.26 0.38,-11.26 l -6.66,-0.94 z"
           id="path10-2" /><path
           style="fill:#ef87b2;stroke-width:2.6802"
           d="m 65.96,100.68 c -1.17,0.05 -1.13,1.13 -1.13,3.61 0,2.49 0.14,3.99 1.27,3.94 1.13,-0.05 0.99,-1.97 0.99,-3.75 0,-1.78 0.09,-3.85 -1.13,-3.8 z"
           id="path11-7" /><path
           style="fill:#2f2f30;stroke-width:2.6802"
           d="m 50.15,90.21 c -1.35,1.99 1.27,3.75 3.43,5.21 2.16,1.45 4.78,3.66 7.88,3.61 3.47,-0.05 4.41,-2.39 4.41,-2.39 0,0 1.13,2.77 6.05,2.25 2.63,-0.28 5.87,-3.23 6.85,-3.89 1.88,-1.27 4.13,-2.86 3.14,-4.18 -1.13,-1.51 -3.52,0.52 -5.96,1.78 -2.44,1.27 -3.28,1.88 -5.11,1.88 -1.83,0 -3.1,-0.75 -3.19,-3.8 -0.08,-2.49 -0.05,-2.96 -0.05,-2.96 h -4.18 c 0,0 0.14,2.63 0.14,3.38 0,1.97 -1.03,2.82 -3,2.91 -1.97,0.09 -4.08,-1.55 -5.12,-2.16 -1.02,-0.6 -4.21,-3.23 -5.29,-1.64 z"
           id="path12-3" /></g><g
         id="g56"
         transform="matrix(0.09871784,0,0,0.09871784,130.41561,68.026001)"
         style="stroke-width:2.6802"><path
           style="fill:#ffc022;stroke-width:2.6802"
           d="M 114.67,70.19 C 112.71,44.22 94.44,26.3 64,26.3 c -30.44,0 -48.75,19.03 -50.55,45.01 -1.05,15.14 4.58,28.63 15.91,36.32 7.46,5.07 17.88,7.88 34.77,7.88 17.18,0 27.03,-3.71 34.49,-8.73 12.43,-8.35 17.18,-21.67 16.05,-36.59 z"
           id="path40" /><g
           id="g43"
           style="stroke-width:2.6802">
	<g
   id="g42"
   style="stroke-width:2.6802">
		<g
   id="g41"
   style="stroke-width:2.6802">
			<path
   style="fill:#ffc022;stroke-width:2.6802"
   d="M 53.72,42.6 C 46.3,23.4 30.1,10.34 23.87,8.39 21.52,7.65 18.57,7.58 17.24,9.74 13.88,15.19 9.58,32.69 19.09,57.52 Z"
   id="path41" />
		</g>
		<path
   style="fill:#ffd1d1;stroke-width:2.6802"
   d="m 36.12,34.21 c 1.54,-1.29 2.29,-2.55 0.6,-5.16 C 34.1,25 29.39,20.27 27.56,18.82 c -3,-2.38 -5.32,-3.18 -6.21,0.65 -1.65,7.08 -1.52,16.69 0.25,21.99 0.62,1.87 2.54,2.86 4.02,1.57 z"
   id="path42" />
	</g>
</g><path
           style="fill:#ff9b31;stroke-width:2.6802"
           d="m 54.12,45.02 c 1.13,0.96 3.42,0.82 4.75,-0.72 1.61,-1.87 3.29,-8.17 2.24,-17.91 -4.67,0.17 -9.09,0.84 -13.21,1.97 3.33,5.46 4.13,14.88 6.22,16.66 z"
           id="path43" /><path
           style="fill:#ff9b31;stroke-width:2.6802"
           d="m 73.88,45.02 c -1.13,0.96 -3.42,0.82 -4.75,-0.72 -1.61,-1.87 -3.29,-8.17 -2.24,-17.91 4.67,0.17 9.09,0.84 13.21,1.97 -3.33,5.46 -4.13,14.88 -6.22,16.66 z"
           id="path44" /><g
           id="g45"
           style="stroke-width:2.6802">
	<path
   style="fill:#ffc022;stroke-width:2.6802"
   d="M 79.9,29.22 C 87.98,16.81 99.28,8.47 103.97,6.98 c 2.32,-0.74 5.02,-0.62 6.34,1.55 3.32,5.45 6.13,22.24 -0.42,45.75 L 85.96,42.74 Z"
   id="path45" />
</g><g
           id="g46"
           style="stroke-width:2.6802">
	<path
   style="fill:#ffd1d1;stroke-width:2.6802"
   d="m 97.55,38.23 c 2.43,2.43 4.41,4.06 5.84,5.61 0.95,1.03 2.69,0.56 2.97,-0.82 2.45,-11.8 1.67,-21.86 0,-24.5 -0.8,-1.26 -2.29,-1.59 -3.65,-1.13 -2.44,0.81 -8.66,5.45 -13.05,12.22 -0.51,0.79 -0.32,1.85 0.46,2.38 1.58,1.07 4.34,3.14 7.43,6.24 z"
   id="path46" />
</g><path
           d="m 55.67,77.75 c -0.05,-3.08 4.37,-4.55 8.54,-4.62 4.18,-0.07 8.68,1.29 8.73,4.37 0.05,3.08 -5.22,7.13 -8.54,7.13 -3.31,0 -8.67,-3.81 -8.73,-6.88 z"
           id="path47"
           style="stroke-width:2.6802" /><g
           id="g54"
           style="stroke-width:2.6802">
	<g
   id="g50"
   style="stroke-width:2.6802">
		<path
   style="fill:none;stroke:#9e9e9e;stroke-width:8.04059;stroke-linecap:round;stroke-miterlimit:10"
   d="m 6.7,71.03 c 0.34,0.41 4.41,0.35 14.36,5.07"
   id="path48" />
		<path
   style="fill:none;stroke:#9e9e9e;stroke-width:8.04059;stroke-linecap:round;stroke-miterlimit:10"
   d="m 2.9,82.86 c 0,0 6.42,-2.24 17.46,-0.28"
   id="path49" />
		<path
   style="fill:none;stroke:#9e9e9e;stroke-width:8.04059;stroke-linecap:round;stroke-miterlimit:10"
   d="m 8.81,92.29 c 0,0 2.74,-1.38 12.67,-2.25"
   id="path50" />
	</g>
	<g
   id="g53"
   style="stroke-width:2.6802">
		<path
   style="fill:none;stroke:#9e9e9e;stroke-width:8.04059;stroke-linecap:round;stroke-miterlimit:10"
   d="m 120.87,67.51 c 0,0 -3.41,0.33 -13.94,6.34"
   id="path51" />
		<path
   style="fill:none;stroke:#9e9e9e;stroke-width:8.04059;stroke-linecap:round;stroke-miterlimit:10"
   d="m 122.42,78.49 c 0,0 -5.09,-0.36 -16.05,1.97"
   id="path52" />
		<path
   style="fill:none;stroke:#9e9e9e;stroke-width:8.04059;stroke-linecap:round;stroke-miterlimit:10"
   d="m 120.45,89.05 c 0,0 -4.83,-1.71 -14.78,-2.25"
   id="path53" />
	</g>
</g><path
           style="fill:#000200;stroke-width:2.6802"
           d="m 96.09,66.37 c -0.34,5.51 -3.76,8.54 -7.65,8.54 -3.89,0 -7.04,-3.88 -7.04,-8.66 0,-4.78 3.28,-8.71 7.65,-8.47 5.07,0.29 7.32,4.09 7.04,8.59 z"
           id="path54" /><path
           style="fill:#000200;stroke-width:2.6802"
           d="m 46,65.81 c 0.78,5.61 -1.58,9.03 -5.49,9.82 -3.91,0.79 -7.26,-1.84 -8.23,-6.64 -0.98,-4.81 0.9,-9.32 5.34,-9.97 5.15,-0.75 7.74,2.2 8.38,6.79 z"
           id="path55" /><path
           d="m 44.99,85.16 c -2.57,1.67 0.47,5.54 2.25,6.85 1.78,1.31 4.98,2.92 9.67,2.44 5.54,-0.56 7.13,-4.69 7.13,-4.69 0,0 1.97,4.6 8.82,4.79 6.95,0.19 9.1,-3.57 10.04,-4.69 0.94,-1.13 1.88,-4.04 0.28,-5.16 -1.6,-1.13 -2.72,0.28 -4.41,2.63 -1.69,2.35 -5.16,3.66 -8.54,2.06 -3.38,-1.6 -3.57,-7.04 -3.57,-7.04 l -4.79,0.28 c 0,0 -0.75,4.69 -2.91,6.19 -2.16,1.5 -7.32,1.88 -9.48,-1.41 -0.95,-1.46 -2.33,-3.66 -4.49,-2.25 z"
           id="path56"
           style="stroke-width:2.6802" /></g><text
         xml:space="preserve"
         style="font-style:normal;font-variant:normal;font-weight:normal;font-stretch:normal;font-size:6.35px;line-height:125%;font-family:'Segoe UI';-inkscape-font-specification:'Segoe UI';text-decoration:none;text-decoration-line:none;text-decoration-color:#000000;letter-spacing:0px;word-spacing:0px;writing-mode:lr-tb;fill:#2a7fff;stroke:none;stroke-width:1.05833;stroke-linecap:round;stroke-linejoin:round;stroke-opacity:1;paint-order:stroke fill markers"
         x="31.799099"
         y="101.42879"
         id="text57"
         transform="scale(1.0056984,0.99433389)"><tspan
           sodipodi:role="line"
           id="tspan57"
           style="font-style:normal;font-variant:normal;font-weight:normal;font-stretch:normal;font-size:6.35px;font-family:'Segoe UI';-inkscape-font-specification:'Segoe UI';fill:#2a7fff;stroke:none;stroke-width:1.05833"
           x="31.799099"
           y="101.42879">&quot;dog&quot;</tspan></text><text
         xml:space="preserve"
         style="font-style:normal;font-variant:normal;font-weight:normal;font-stretch:normal;font-size:6.35px;line-height:125%;font-family:'Segoe UI';-inkscape-font-specification:'Segoe UI';text-decoration:none;text-decoration-line:none;text-decoration-color:#000000;letter-spacing:0px;word-spacing:0px;writing-mode:lr-tb;fill:#ff6600;stroke:none;stroke-width:1.05833;stroke-linecap:round;stroke-linejoin:round;stroke-opacity:1;paint-order:stroke fill markers"
         x="86.205238"
         y="140.67204"
         id="text58"><tspan
           sodipodi:role="line"
           id="tspan58"
           style="font-style:normal;font-variant:normal;font-weight:normal;font-stretch:normal;font-size:6.35px;font-family:'Segoe UI';-inkscape-font-specification:'Segoe UI';fill:#ff6600;stroke:none;stroke-width:1.05833"
           x="86.205238"
           y="140.67204">&quot;cat&quot;</tspan></text><text
         xml:space="preserve"
         style="font-style:normal;font-variant:normal;font-weight:normal;font-stretch:normal;font-size:4.93889px;line-height:125%;font-family:'Segoe UI';-inkscape-font-specification:'Segoe UI';text-align:center;text-decoration:none;text-decoration-line:none;text-decoration-color:#000000;letter-spacing:0px;word-spacing:0px;writing-mode:lr-tb;text-anchor:middle;fill:#ff6600;stroke:none;stroke-width:1.05833;stroke-linecap:round;stroke-linejoin:round;stroke-opacity:1;paint-order:stroke fill markers"
         x="163.60637"
         y="88.028595"
         id="text59"><tspan
           sodipodi:role="line"
           id="tspan59"
           style="font-style:normal;font-variant:normal;font-weight:normal;font-stretch:normal;font-size:4.93889px;font-family:'Segoe UI';-inkscape-font-specification:'Segoe UI';text-align:center;text-anchor:middle;fill:#ff6600;stroke:none;stroke-width:1.05833"
           x="163.60637"
           y="88.028595">&quot;felis cattus, also known as</tspan><tspan
           sodipodi:role="line"
           style="font-style:normal;font-variant:normal;font-weight:normal;font-stretch:normal;font-size:4.93889px;font-family:'Segoe UI';-inkscape-font-specification:'Segoe UI';text-align:center;text-anchor:middle;fill:#ff6600;stroke:none;stroke-width:1.05833"
           x="163.60637"
           y="94.202209"
           id="tspan60">the domestic cat&quot;</tspan></text><text
         xml:space="preserve"
         style="font-style:normal;font-variant:normal;font-weight:normal;font-stretch:normal;font-size:6.35px;line-height:125%;font-family:'Segoe UI';-inkscape-font-specification:'Segoe UI';text-decoration:none;text-decoration-line:none;text-decoration-color:#000000;letter-spacing:0px;word-spacing:0px;writing-mode:lr-tb;fill:#f9f9f9;stroke:none;stroke-width:1.05833;stroke-linecap:round;stroke-linejoin:round;stroke-opacity:1;paint-order:stroke fill markers"
         x="20.360174"
         y="17.774755"
         id="text63"><tspan
           sodipodi:role="line"
           id="tspan63"
           style="font-style:normal;font-variant:normal;font-weight:normal;font-stretch:normal;font-size:6.35px;font-family:'Segoe UI';-inkscape-font-specification:'Segoe UI';fill:#f9f9f9;stroke:none;stroke-width:1.05833"
           x="20.360174"
           y="17.774755"><tspan
   style="fill:#ff6600"
   id="tspan72">&quot;cat&quot;</tspan> might be close to <tspan
   style="fill:#2a7fff"
   id="tspan73">&quot;dog&quot;</tspan> by distance</tspan><tspan
           sodipodi:role="line"
           style="font-style:normal;font-variant:normal;font-weight:normal;font-stretch:normal;font-size:6.35px;font-family:'Segoe UI';-inkscape-font-specification:'Segoe UI';fill:#f9f9f9;stroke:none;stroke-width:1.05833"
           x="20.360174"
           y="25.712255"
           id="tspan65">(euclidean similarity)</tspan><tspan
           sodipodi:role="line"
           style="font-style:normal;font-variant:normal;font-weight:normal;font-stretch:normal;font-size:6.35px;font-family:'Segoe UI';-inkscape-font-specification:'Segoe UI';fill:#f9f9f9;stroke:none;stroke-width:1.05833"
           x="20.360174"
           y="33.649754"
           id="tspan66">as they are similar words used in similar ways.</tspan><tspan
           sodipodi:role="line"
           style="font-style:normal;font-variant:normal;font-weight:normal;font-stretch:normal;font-size:6.35px;font-family:'Segoe UI';-inkscape-font-specification:'Segoe UI';fill:#f9f9f9;stroke:none;stroke-width:1.05833"
           x="20.360174"
           y="41.587254"
           id="tspan67">But <tspan
   style="fill:#ff6600"
   id="tspan74">&quot;cat&quot;</tspan> and <tspan
   style="fill:#ff6600"
   id="tspan75">&quot;felis cattus, also known as</tspan></tspan><tspan
           sodipodi:role="line"
           style="font-style:normal;font-variant:normal;font-weight:normal;font-stretch:normal;font-size:6.35px;font-family:'Segoe UI';-inkscape-font-specification:'Segoe UI';fill:#f9f9f9;stroke:none;stroke-width:1.05833"
           x="20.360174"
           y="49.524754"
           id="tspan68"><tspan
   style="fill:#ff6600"
   id="tspan76">the domestic cat&quot;</tspan> are closer in meaning,</tspan><tspan
           sodipodi:role="line"
           style="font-style:normal;font-variant:normal;font-weight:normal;font-stretch:normal;font-size:6.35px;font-family:'Segoe UI';-inkscape-font-specification:'Segoe UI';fill:#f9f9f9;stroke:none;stroke-width:1.05833"
           x="20.360174"
           y="57.462254"
           id="tspan69">and will likely have a more similar angle</tspan><tspan
           sodipodi:role="line"
           style="font-style:normal;font-variant:normal;font-weight:normal;font-stretch:normal;font-size:6.35px;font-family:'Segoe UI';-inkscape-font-specification:'Segoe UI';fill:#f9f9f9;stroke:none;stroke-width:1.05833"
           x="20.360174"
           y="65.399757"
           id="tspan70">from the origin (cosine similarity).</tspan></text></g></g></svg>
